<?xml version="1.0" encoding="UTF-8"?>
<svg id="_图层_2" data-name="图层 2" xmlns="http://www.w3.org/2000/svg" viewBox="0 0 192 192">
  <defs>
    <style>
      .cls-1 {
        fill: #040000;
      }
    </style>
  </defs>
  <g id="_图层_1-2" data-name="图层 1">
    <path class="cls-1" d="M156.89,32.66l-7.94,5.92,.1,.64c2.3,2.19,5.56,3.38,8.91,3.28,3.36-.11,6.5-1.51,8.62-3.84,2.13-2.34,3.01-5.37,2.45-8.33-.56-2.96-2.53-5.56-5.4-7.14-1.09,3.71-3.44,7.01-6.72,9.47h0Z"/>
    <path class="cls-1" d="M36.65,41.64c3.31,1.43,7.21,1.23,10.31-.52s5-4.81,5-8.09V16.9c-4.64-.54-9.2-1.58-13.57-3.09l-.16,.98h0c-.51,3.29-2.31,6.3-5.07,8.52-.19,.16-.45,.23-.71,.22-.26-.02-.51-.12-.67-.3-1.21-1.26-3.13-1.79-4.92-1.36-1.81,.43-3.17,1.75-3.52,3.38-.14,.6-.12,1.23,.04,1.83,.51,1.96,2.48,3.35,4.73,3.35,.16,0,.31,0,.47-.03,.3-.03,.59,.07,.8,.26,.21,.19,.31,.46,.27,.73l-2.31,14.74c.36,.03,.71,.06,1.07,.1h0c2.88,.32,5.7,.96,8.39,1.93l.67-4.36c-.56-.17-1.12-.36-1.64-.58-.25-.1-.44-.28-.53-.5-.09-.23-.08-.47,.04-.69,.12-.21,.32-.37,.57-.44,.25-.08,.52-.05,.76,.06h0Zm6.58-11.23h2.91v-4.35c0-.49,.44-.87,.97-.87s.97,.38,.97,.87v5.21c0,.23-.11,.45-.28,.61-.18,.17-.43,.26-.69,.26h-3.89c-.53,0-.97-.39-.97-.87s.44-.87,.97-.87h0Zm-4.17,4.6c.16-.18,.39-.3,.65-.32,.25-.03,.51,.03,.71,.18,1.4,1,3.14,1.55,4.93,1.55h.29c.53,0,.97,.39,.97,.87s-.44,.87-.97,.87h-.29c-2.23,0-4.4-.69-6.15-1.93-.42-.3-.49-.84-.15-1.22h0Z"/>
    <path class="cls-1" d="M121.58,25.62v-8.31c0-.28,.16-.54,.41-.7,.25-.17,.57-.21,.87-.12l19.26,5.74c1.44-1.58,3.67-2.42,5.94-2.21,2.27,.2,4.28,1.42,5.34,3.22,1.06,1.81,1.04,3.97-.07,5.76-1.1,1.79-3.14,2.96-5.41,3.13l.69,4.42,7.01-5.23h0c5.71-4.26,8.05-11.14,5.96-17.53-2.09-6.38-8.22-11.05-15.59-11.87l-9.06-1.01h0c-6.49-.73-12.87,1.95-16.4,6.88-3.52,4.93-3.55,11.24-.09,16.2l1.13,1.62Z"/>
    <path class="cls-1" d="M140.75,42.69c-.85,.46-1.76,.83-2.7,1.1l.72,4.71c2.96-1.15,6.1-1.91,9.3-2.28,.04,0,.07,0,.11,0l-2.32-14.84c-.04-.26,.06-.53,.26-.72s.51-.29,.8-.26c.16,.02,.32,.03,.48,.02,1.72,0,3.3-.8,4.18-2.12,.87-1.32,.91-2.95,.09-4.3-.82-1.35-2.37-2.21-4.09-2.26-1.71-.06-3.33,.7-4.25,1.99-.24,.34-.71,.48-1.13,.36l-18.65-5.56v14.51c0,3,1.56,5.82,4.24,7.63,2.67,1.8,6.14,2.38,9.35,1.56,.92-.23,1.8-.57,2.61-1.01,.46-.25,1.05-.12,1.33,.29,.28,.41,.14,.95-.33,1.19h0Zm-13.34-11.41v-5.21h0c0-.48,.43-.86,.97-.86s.97,.38,.97,.87v4.35h2.91c.53,0,.97,.38,.97,.87s-.44,.87-.97,.87h-3.89c-.54,0-.97-.39-.97-.87h0Zm8.88,4.94h0c-1.74,1.25-3.9,1.94-6.14,1.94h-.29c-.54,0-.97-.39-.97-.87s.43-.87,.97-.87h.29c1.79,0,3.53-.55,4.92-1.55,.42-.3,1.03-.24,1.37,.14,.33,.37,.26,.92-.16,1.22h0Z"/>
    <path class="cls-1" d="M22.56,22.55c1.11-1.39,2.82-2.3,4.71-2.51s3.8,.3,5.25,1.42c2.05-1.89,3.37-4.29,3.79-6.9l.33-2.08c.04-.26,.21-.5,.48-.63,.26-.14,.57-.16,.85-.05,6.89,2.53,14.27,3.82,21.72,3.82h.52v-4.96c0-3.68-2.14-7.12-5.64-9.06s-7.88-2.12-11.57-.48l-7.17,3.19c-.26,.11-.56,.12-.84,.02-1.29-.52-2.7-.8-4.13-.8-2.98,.03-5.8,1.23-7.7,3.29-1.89,2.06-2.67,4.77-2.12,7.4l1.51,8.34Z"/>
    <path class="cls-1" d="M151.09,120.43l10.2-43.37h0c1.65-7.05-3.38-13.96-11.26-15.44-7.88-1.49-15.6,3.02-17.26,10.07l-8.16,34.69c-.09,.38-.46,.66-.88,.69-.44,.03-.84-.21-.98-.58l-19.05-48.43-15.39,39.29,10.21,26.13c4.06,10.37,15.33,17.04,27.57,16.34,12.25-.71,22.47-8.64,24.99-19.38h0Z"/>
    <path class="cls-1" d="M190.17,172.42c-1.23-6.76-3.06-13.43-5.48-19.92l-8.17-21.93c-.04-.1-.05-.18-.05-.28v-59.96c0-6.39-3.02-12.49-8.3-16.8-5.1-4.21-11.97-6.28-18.87-5.68-.33,.03-.65,.06-.98,.1-16.1,1.8-28.19,14.04-28.19,28.56v18.06l3.3,8.4,7.45-31.65c1.88-7.98,10.64-13.09,19.56-11.41,8.93,1.69,14.64,9.52,12.75,17.5l-10.2,43.37c-3.18,13.54-17.57,22.54-32.87,20.53v50.69h71.87c-.05-6.56-.66-13.11-1.84-19.58h0Z"/>
    <path class="cls-1" d="M22.92,117.31l-10.21-43.37c-.06-.23,0-.46,.14-.66,.14-.19,.36-.33,.61-.37,.25-.05,.51,0,.74,.12,.21,.13,.36,.33,.42,.56l7.25,30.82,28.3-6.28-7.03-29.9h0c-.05-.23,0-.47,.14-.67,.14-.19,.36-.33,.61-.38,.26-.04,.52,0,.74,.13s.37,.33,.42,.56l7.44,31.64,3.87-9.88v-13.1c0-15.9-14.4-28.78-32.17-28.79C10.82,47.74,.02,57.41,0,69.35v77.45H56.33v-9.04c-15.46,2.29-30.2-6.74-33.41-20.46h0Z"/>
    <path class="cls-1" d="M102.66,53.15c-.51-.96-1.61-1.54-2.79-1.48-1.18,.06-2.2,.75-2.58,1.74l-2.1,5.35h0c-.17,.46-.73,.7-1.23,.54s-.78-.65-.59-1.11l2.1-5.35c.53-1.36-.26-2.85-1.79-3.33-1.52-.47-3.18,.24-3.71,1.6l-2.05,5.22c-.18,.45-.73,.69-1.23,.53-.51-.16-.77-.65-.6-1.1l2.05-5.22c.53-1.36-.26-2.85-1.79-3.32-1.52-.48-3.18,.23-3.71,1.59l-2.22,5.68c-.17,.45-.73,.7-1.24,.54-.51-.17-.77-.66-.59-1.11l2.22-5.68c.53-1.36-.26-2.84-1.78-3.32-1.52-.48-3.19,.23-3.72,1.59l-2.26,5.67h0c-.1,.25-.32,.44-.59,.53s-.57,.06-.83-.07l-.61-.33c-1.4-.75-3.2-.56-4.36,.46-1.18,1.02-1.44,2.61-.65,3.88l3.03,4.9c.14,.22,.16,.48,.07,.71l-15.94,40.74c-.14,.35-.51,.58-.92,.58h-.06c-.44-.03-.8-.3-.88-.69l-.73-3.08-28.3,6.28,2.55,10.86h0c2.53,10.73,12.74,18.66,24.99,19.36,12.25,.71,23.52-5.96,27.57-16.33l25.41-64.85c.26-.65,.21-1.37-.13-1.99h0Z"/>
    <path class="cls-1" d="M0,148.54H56.33v43.46H0v-43.46Z"/>
    <path class="cls-1" d="M88.39,38.68l12.44-11.13c1.37-1.22,2.15-2.88,2.15-4.61,0-1.73-.76-3.39-2.13-4.61s-3.22-1.91-5.16-1.9c-1.93,0-3.79,.7-5.15,1.92l-1.47,1.31h0c-.38,.35-1,.35-1.38,0l-1.47-1.31h0c-1.36-1.23-3.21-1.93-5.15-1.93-1.93,0-3.79,.68-5.16,1.9s-2.14,2.89-2.13,4.61c0,1.73,.78,3.39,2.15,4.61l12.44,11.13Z"/>
  </g>
</svg>