<?xml version="1.0" encoding="UTF-8"?>
<svg id="_图层_2" data-name="图层 2" xmlns="http://www.w3.org/2000/svg" viewBox="0 0 162.07 97.62">
  <defs>
    <style>
      .cls-1 {
        fill: #040000;
      }

      .cls-2 {
        fill: #231815;
        font-family: BMKIRANGHAERANG-OTF-KSCpc-EUC-H, 'BM Kirang Haerang';
        font-size: 36px;
      }
    </style>
  </defs>
  <g id="_图层_1-2" data-name="图层 1">
    <path class="cls-1" d="M63.1,15.21l-3.2,2.66,.04,.29c.93,.98,2.23,1.52,3.58,1.47,1.35-.05,2.61-.68,3.46-1.73,.86-1.05,1.21-2.41,.98-3.75-.23-1.33-1.02-2.5-2.17-3.21-.44,1.67-1.38,3.15-2.7,4.26h0Z"/>
    <path class="cls-1" d="M14.74,19.24c1.33,.64,2.9,.55,4.15-.23s2.01-2.16,2.01-3.64v-7.25c-1.87-.24-3.7-.71-5.46-1.39l-.06,.44h0c-.21,1.48-.93,2.83-2.04,3.83-.08,.07-.18,.11-.29,.1-.11,0-.2-.05-.27-.13-.49-.57-1.26-.8-1.98-.61-.73,.2-1.27,.79-1.41,1.52-.05,.27-.05,.55,.02,.82,.21,.88,1,1.5,1.9,1.5,.06,0,.12,0,.19-.01,.12-.01,.24,.03,.32,.12,.09,.09,.12,.21,.11,.33l-.93,6.62c.14,.01,.29,.03,.43,.05h0c1.16,.14,2.29,.43,3.38,.87l.27-1.96c-.23-.07-.45-.16-.66-.26-.1-.04-.18-.12-.21-.22-.04-.1-.03-.21,.02-.31,.05-.09,.13-.17,.23-.2,.1-.04,.21-.02,.3,.03h0Zm2.64-5.05h1.17v-1.95c0-.22,.18-.39,.39-.39s.39,.17,.39,.39v2.34c0,.1-.04,.2-.11,.27-.07,.07-.17,.12-.28,.12h-1.56c-.21,0-.39-.18-.39-.39s.18-.39,.39-.39h0Zm-1.68,2.07c.06-.08,.16-.13,.26-.14,.1-.01,.2,.02,.29,.08,.56,.45,1.26,.7,1.98,.7h.12c.21,0,.39,.18,.39,.39s-.18,.39-.39,.39h-.12c-.9,0-1.77-.31-2.47-.87-.17-.13-.2-.38-.06-.55h0Z"/>
    <path class="cls-1" d="M48.9,12.04v-3.73c0-.12,.06-.24,.16-.32,.1-.07,.23-.09,.35-.05l7.75,2.58c.58-.71,1.48-1.09,2.39-.99,.91,.09,1.72,.64,2.15,1.45,.43,.81,.42,1.79-.03,2.59-.44,.8-1.26,1.33-2.18,1.41l.28,1.99,2.82-2.35h0c2.3-1.91,3.24-5.01,2.4-7.88-.84-2.87-3.3-4.96-6.27-5.34l-3.64-.45h0c-2.61-.33-5.18,.88-6.59,3.09-1.41,2.21-1.43,5.05-.04,7.28l.45,.73Z"/>
    <path class="cls-1" d="M56.61,19.72c-.34,.21-.71,.38-1.09,.49l.29,2.12c1.19-.52,2.45-.86,3.74-1.02,.02,0,.03,0,.04,0l-.93-6.67c-.02-.12,.02-.24,.11-.32s.2-.13,.32-.12c.06,0,.13,.01,.19,0,.69,0,1.33-.36,1.68-.95,.35-.59,.37-1.33,.04-1.93-.33-.61-.95-.99-1.64-1.02-.69-.03-1.34,.32-1.71,.89-.1,.15-.29,.21-.45,.16l-7.5-2.5v6.52c0,1.35,.63,2.62,1.71,3.43,1.07,.81,2.47,1.07,3.76,.7,.37-.1,.72-.26,1.05-.45,.18-.11,.42-.05,.54,.13,.11,.18,.05,.43-.13,.54h0Zm-5.36-5.13v-2.34h0c0-.21,.17-.39,.39-.39s.39,.17,.39,.39v1.95h1.17c.21,0,.39,.17,.39,.39s-.18,.39-.39,.39h-1.56c-.22,0-.39-.18-.39-.39h0Zm3.57,2.22h0c-.7,.56-1.57,.87-2.47,.87h-.12c-.22,0-.39-.18-.39-.39s.17-.39,.39-.39h.12c.72,0,1.42-.25,1.98-.7,.17-.14,.41-.11,.55,.06,.13,.17,.11,.41-.06,.55h0Z"/>
    <path class="cls-1" d="M9.07,10.66c.45-.62,1.13-1.04,1.89-1.13s1.53,.14,2.11,.64c.82-.85,1.36-1.93,1.52-3.1l.13-.93c.02-.12,.09-.22,.19-.28,.11-.06,.23-.07,.34-.02,2.77,1.14,5.74,1.72,8.73,1.71h.21v-2.23c0-1.66-.86-3.2-2.27-4.07s-3.17-.95-4.65-.21l-2.88,1.43c-.11,.05-.23,.05-.34,0-.52-.23-1.09-.36-1.66-.36-1.2,.01-2.33,.55-3.1,1.48-.76,.93-1.07,2.14-.85,3.32l.61,3.75Z"/>
    <path class="cls-1" d="M60.77,54.65l4.1-19.49h0c.66-3.17-1.36-6.27-4.53-6.94-3.17-.67-6.27,1.36-6.94,4.53l-3.28,15.59c-.04,.17-.18,.3-.36,.31-.18,.01-.34-.09-.39-.26l-7.66-21.77-6.19,17.66,4.11,11.74c1.63,4.66,6.16,7.66,11.09,7.34,4.93-.32,9.04-3.88,10.05-8.71h0Z"/>
    <path class="cls-1" d="M76.48,78.02c-.5-3.04-1.23-6.04-2.2-8.95l-3.29-9.86s-.02-.08-.02-.12v-26.95c0-2.87-1.21-5.61-3.34-7.55-2.05-1.89-4.81-2.82-7.59-2.55-.13,.01-.26,.03-.39,.04-6.48,.81-11.34,6.31-11.34,12.84v8.12l1.33,3.78,3-14.23c.76-3.59,4.28-5.88,7.87-5.13,3.59,.76,5.89,4.28,5.13,7.87l-4.1,19.49c-1.28,6.09-7.07,10.13-13.22,9.23v22.78h28.91c-.02-2.95-.27-5.89-.74-8.8h0Z"/>
    <path class="cls-1" d="M9.22,53.25l-4.11-19.49c-.02-.1,0-.21,.05-.3,.05-.09,.14-.15,.25-.17,.1-.02,.21,0,.3,.05,.09,.06,.14,.15,.17,.25l2.91,13.85,11.38-2.82-2.83-13.44h0c-.02-.11,0-.21,.05-.3,.05-.09,.14-.15,.25-.17,.11-.02,.21,0,.3,.06s.15,.15,.17,.25l2.99,14.22,1.55-4.44v-5.89c0-7.14-5.79-12.93-12.94-12.94C4.35,21.99,0,26.33,0,31.7v34.81H22.66v-4.06c-6.22,1.03-12.15-3.03-13.44-9.2h0Z"/>
    <path class="cls-1" d="M41.29,24.42c-.2-.43-.65-.69-1.12-.66-.47,.03-.88,.34-1.04,.78l-.84,2.41h0c-.07,.21-.29,.31-.5,.24s-.31-.29-.24-.5l.84-2.41c.21-.61-.11-1.28-.72-1.5-.61-.21-1.28,.11-1.49,.72l-.82,2.35c-.07,.2-.29,.31-.5,.24-.2-.07-.31-.29-.24-.5l.82-2.35c.21-.61-.11-1.28-.72-1.49-.61-.21-1.28,.11-1.49,.71l-.89,2.55c-.07,.2-.29,.31-.5,.24-.2-.07-.31-.3-.24-.5l.89-2.55c.21-.61-.11-1.28-.71-1.49-.61-.21-1.28,.11-1.5,.71l-.91,2.55h0c-.04,.11-.13,.2-.24,.24s-.23,.03-.33-.03l-.25-.15c-.56-.34-1.29-.25-1.75,.21-.47,.46-.58,1.17-.26,1.75l1.22,2.2c.05,.1,.06,.21,.03,.32l-6.41,18.31c-.05,.16-.2,.26-.37,.26h-.02c-.18-.01-.32-.14-.36-.31l-.29-1.38-11.38,2.82,1.03,4.88h0c1.02,4.82,5.12,8.39,10.05,8.7,4.93,.32,9.46-2.68,11.09-7.34l10.22-29.15c.11-.29,.09-.62-.05-.89h0Z"/>
    <path class="cls-1" d="M0,67.29H22.66v19.53H0v-19.53Z"/>
    <path class="cls-1" d="M35.55,17.91l5-5c.55-.55,.86-1.29,.86-2.07,0-.78-.3-1.52-.86-2.07s-1.3-.86-2.07-.86c-.78,0-1.52,.31-2.07,.86l-.59,.59h0c-.15,.16-.4,.16-.55,0l-.59-.59h0c-.55-.55-1.29-.87-2.07-.87-.78,0-1.52,.3-2.07,.86s-.86,1.3-.86,2.07c0,.78,.31,1.52,.86,2.07l5,5Z"/>
    <text class="cls-2" transform="translate(76.75 28.8)"><tspan x="0" y="0">Meng </tspan><tspan x="38.16" y="25"> </tspan></text>
    <text class="cls-2" transform="translate(90.87 86.82)"><tspan x="0" y="0">Y E</tspan></text>
    <text class="cls-2" transform="translate(103.74 54.74) rotate(12.18)"><tspan x="0" y="0">&amp;</tspan></text>
  </g>
</svg>